<svg width="87.2px" height="236.96000366210936px" xmlns="http://www.w3.org/2000/svg" viewBox="206.4 -43.48000183105468 87.2 236.96000366210936" style="background:#e00" preserveAspectRatio="xMidYMid"><defs><filter id="editing-lego" x="-100%" y="-100%" width="300%" height="300%"><feFlood flood-color="#000" result="f1"></feFlood><feFlood flood-color="#ffff00" result="f2"></feFlood><feMorphology operator="dilate" radius="3" in="SourceAlpha"></feMorphology><feConvolveMatrix order="5,5" divisor="1" result="cm1" kernelMatrix="0 1 1 1 0  1 0 0 0 1  1 0 0 0 1  1 0 0 0 1  0 1 1 1 0"></feConvolveMatrix><feComposite operator="in" in="f1" in2="cm1" result="c1"></feComposite><feMorphology operator="dilate" radius="3"></feMorphology><feConvolveMatrix order="5,5" divisor="1" result="cm2" kernelMatrix="0 1 1 1 0  1 0 0 0 1  1 0 0 0 1  1 0 0 0 1  0 1 1 1 0"></feConvolveMatrix><feComposite operator="in" in="f2" in2="cm2" result="c2"></feComposite><feMerge><feMergeNode in="c2"></feMergeNode><feMergeNode in="c1"></feMergeNode><feMergeNode in="SourceGraphic"></feMergeNode></feMerge></filter></defs><g filter="url(#editing-lego)"><g transform="translate(226.37926983833313, 123.26500272750854)"><path d="M44.70-94.36L48.64-91.82L45.97-78.23L41.78-77.60L40.13-88.77L39.12-90.30L34.29-90.93L26.42-85.72L24.77-73.66L24.77-59.69L42.93-60.33L41.66-53.98L24.77-54.61L24.89-21.34L25.53-6.35L38.73-3.81L38.10 0.64L18.80 0L3.30 0.64L3.56-3.81L12.06-6.35L13.34-19.30L12.83-54.61L4.57-53.98L4.57-60.33L12.95-59.82L13.72-78.74L20.19-90.81L31.62-95.89L44.70-94.36Z" fill="#000000"></path></g></g><style>text {
  font-size: 64px;
  font-family: Arial Black;
  dominant-baseline: central;
  text-anchor: middle;
}</style></svg>